<svg id="visual" viewBox="0 0 1900 600" width="1900" height="600" xmlns="http://www.w3.org/2000/svg" xmlns:xlink="http://www.w3.org/1999/xlink" version="1.1"><rect x="0" y="0" width="1900" height="600" fill="#001220"></rect><path d="M0 244L22.7 236.7C45.3 229.3 90.7 214.7 135.8 215.3C181 216 226 232 271.2 239.5C316.3 247 361.7 246 407 238.5C452.3 231 497.7 217 543 210.3C588.3 203.7 633.7 204.3 678.8 209C724 213.7 769 222.3 814.2 223.5C859.3 224.7 904.7 218.3 950 216.5C995.3 214.7 1040.7 217.3 1085.8 215C1131 212.7 1176 205.3 1221.2 211.3C1266.3 217.3 1311.7 236.7 1357 249.5C1402.3 262.3 1447.7 268.7 1493 264.8C1538.3 261 1583.7 247 1628.8 237C1674 227 1719 221 1764.2 227.7C1809.3 234.3 1854.7 253.7 1877.3 263.3L1900 273L1900 0L1877.3 0C1854.7 0 1809.3 0 1764.2 0C1719 0 1674 0 1628.8 0C1583.7 0 1538.3 0 1493 0C1447.7 0 1402.3 0 1357 0C1311.7 0 1266.3 0 1221.2 0C1176 0 1131 0 1085.8 0C1040.7 0 995.3 0 950 0C904.7 0 859.3 0 814.2 0C769 0 724 0 678.8 0C633.7 0 588.3 0 543 0C497.7 0 452.3 0 407 0C361.7 0 316.3 0 271.2 0C226 0 181 0 135.8 0C90.7 0 45.3 0 22.7 0L0 0Z" fill="#ff0066"></path><path d="M0 163L22.7 160.3C45.3 157.7 90.7 152.3 135.8 157.7C181 163 226 179 271.2 189C316.3 199 361.7 203 407 195C452.3 187 497.7 167 543 162.2C588.3 157.3 633.7 167.7 678.8 175.5C724 183.3 769 188.7 814.2 193C859.3 197.3 904.7 200.7 950 199.3C995.3 198 1040.7 192 1085.8 191.3C1131 190.7 1176 195.3 1221.2 194.2C1266.3 193 1311.7 186 1357 179.8C1402.3 173.7 1447.7 168.3 1493 172.3C1538.3 176.3 1583.7 189.7 1628.8 185.5C1674 181.3 1719 159.7 1764.2 157.7C1809.3 155.7 1854.7 173.3 1877.3 182.2L1900 191L1900 0L1877.3 0C1854.7 0 1809.3 0 1764.2 0C1719 0 1674 0 1628.8 0C1583.7 0 1538.3 0 1493 0C1447.7 0 1402.3 0 1357 0C1311.7 0 1266.3 0 1221.2 0C1176 0 1131 0 1085.8 0C1040.7 0 995.3 0 950 0C904.7 0 859.3 0 814.2 0C769 0 724 0 678.8 0C633.7 0 588.3 0 543 0C497.7 0 452.3 0 407 0C361.7 0 316.3 0 271.2 0C226 0 181 0 135.8 0C90.7 0 45.3 0 22.7 0L0 0Z" fill="#ec1168"></path><path d="M0 106L22.7 114.3C45.3 122.7 90.7 139.3 135.8 140C181 140.7 226 125.3 271.2 123.3C316.3 121.3 361.7 132.7 407 136.2C452.3 139.7 497.7 135.3 543 131C588.3 126.7 633.7 122.3 678.8 114.5C724 106.7 769 95.3 814.2 89.5C859.3 83.7 904.7 83.3 950 84.5C995.3 85.7 1040.7 88.3 1085.8 98C1131 107.7 1176 124.3 1221.2 129C1266.3 133.7 1311.7 126.3 1357 127.2C1402.3 128 1447.7 137 1493 140C1538.3 143 1583.7 140 1628.8 136.7C1674 133.3 1719 129.7 1764.2 131.2C1809.3 132.7 1854.7 139.3 1877.3 142.7L1900 146L1900 0L1877.3 0C1854.7 0 1809.3 0 1764.2 0C1719 0 1674 0 1628.8 0C1583.7 0 1538.3 0 1493 0C1447.7 0 1402.3 0 1357 0C1311.7 0 1266.3 0 1221.2 0C1176 0 1131 0 1085.8 0C1040.7 0 995.3 0 950 0C904.7 0 859.3 0 814.2 0C769 0 724 0 678.8 0C633.7 0 588.3 0 543 0C497.7 0 452.3 0 407 0C361.7 0 316.3 0 271.2 0C226 0 181 0 135.8 0C90.7 0 45.3 0 22.7 0L0 0Z" fill="#d91c69"></path><path d="M0 79L22.7 79.3C45.3 79.7 90.7 80.3 135.8 72C181 63.7 226 46.3 271.2 39.7C316.3 33 361.7 37 407 46.7C452.3 56.3 497.7 71.7 543 81C588.3 90.3 633.7 93.7 678.8 91.5C724 89.3 769 81.7 814.2 70C859.3 58.3 904.7 42.7 950 37.5C995.3 32.3 1040.7 37.7 1085.8 44.2C1131 50.7 1176 58.3 1221.2 64.2C1266.3 70 1311.7 74 1357 72.5C1402.3 71 1447.7 64 1493 65.8C1538.3 67.7 1583.7 78.3 1628.8 84.2C1674 90 1719 91 1764.2 79.5C1809.3 68 1854.7 44 1877.3 32L1900 20L1900 0L1877.3 0C1854.7 0 1809.3 0 1764.2 0C1719 0 1674 0 1628.8 0C1583.7 0 1538.3 0 1493 0C1447.7 0 1402.3 0 1357 0C1311.7 0 1266.3 0 1221.2 0C1176 0 1131 0 1085.8 0C1040.7 0 995.3 0 950 0C904.7 0 859.3 0 814.2 0C769 0 724 0 678.8 0C633.7 0 588.3 0 543 0C497.7 0 452.3 0 407 0C361.7 0 316.3 0 271.2 0C226 0 181 0 135.8 0C90.7 0 45.3 0 22.7 0L0 0Z" fill="#c62368"></path></svg>