<svg id="visual" viewBox="0 0 1900 600" width="1900" height="600" xmlns="http://www.w3.org/2000/svg" xmlns:xlink="http://www.w3.org/1999/xlink" version="1.1"><rect x="0" y="0" width="1900" height="600" fill="#001220"></rect><path d="M 0 247 L 22.7 236.7 C 45.3 229.3 90.7 214.7 135.8 215.3 C 181 216 226 232 271.2 239.5 C 316.3 247 361.7 246 407 238.5 C 452.3 231 497.7 217 543 210.3 C 588.3 203.7 633.7 204.3 678.8 209 C 724 213.7 769 222.3 814.2 223.5 C 859.3 224.7 904.7 218.3 950 216.5 C 995.3 214.7 1040.7 217.3 1085.8 215 C 1131 212.7 1176 205.3 1221.2 211.3 C 1266.3 217.3 1311.7 236.7 1357 249.5 C 1402.3 262.3 1447.7 268.7 1493 264.8 C 1538.3 261 1583.7 247 1628.8 237 C 1674 227 1719 221 1764.2 227.7 C 1809.3 230.3 1854.7 238.7 1877.3 240 L 1900 247 L 1900 0 L 1877.3 0 C 1854.7 0 1809.3 0 1764.2 0 C 1719 0 1674 0 1628.8 0 C 1583.7 0 1538.3 0 1493 0 C 1447.7 0 1402.3 0 1357 0 C 1311.7 0 1266.3 0 1221.2 0 C 1176 0 1131 0 1085.8 0 C 1040.7 0 995.3 0 950 0 C 904.7 0 859.3 0 814.2 0 C 769 0 724 0 678.8 0 C 633.7 0 588.3 0 543 0 C 497.7 0 452.3 0 407 0 C 361.7 0 316.3 0 271.2 0 C 226 0 181 0 135.8 0 C 90.7 0 45.3 0 22.7 0 L 0 0 Z" fill="#ff0066"></path><path d="M 0 163 L 22.7 160.3 C 45.3 157.7 90.7 152.3 135.8 157.7 C 181 163 226 179 271.2 189 C 316.3 199 361.7 203 407 195 C 452.3 187 497.7 167 543 162.2 C 588.3 157.3 633.7 167.7 678.8 175.5 C 724 183.3 769 188.7 814.2 193 C 859.3 197.3 904.7 200.7 950 199.3 C 995.3 198 1040.7 192 1085.8 191.3 C 1131 190.7 1176 195.3 1221.2 194.2 C 1266.3 193 1311.7 186 1357 179.8 C 1402.3 173.7 1447.7 168.3 1493 172.3 C 1538.3 176.3 1583.7 189.7 1628.8 185.5 C 1674 181.3 1719 159.7 1764.2 157.7 C 1809.3 155.7 1854.7 173.3 1877.3 182.2 L 1900 191 L 1900 0 L 1877.3 0 C 1854.7 0 1809.3 0 1764.2 0 C 1719 0 1674 0 1628.8 0 C 1583.7 0 1538.3 0 1493 0 C 1447.7 0 1402.3 0 1357 0 C 1311.7 0 1266.3 0 1221.2 0 C 1176 0 1131 0 1085.8 0 C 1040.7 0 995.3 0 950 0 C 904.7 0 859.3 0 814.2 0 C 769 0 724 0 678.8 0 C 633.7 0 588.3 0 543 0 C 497.7 0 452.3 0 407 0 C 361.7 0 316.3 0 271.2 0 C 226 0 181 0 135.8 0 C 90.7 0 45.3 0 22.7 0 L 0 0 Z" fill="#ec1168"></path><path d="M 0 106 L 22.7 114.3 C 45.3 122.7 90.7 139.3 135.8 140 C 181 140.7 226 125.3 271.2 123.3 C 316.3 121.3 361.7 132.7 407 136.2 C 452.3 139.7 497.7 135.3 543 131 C 588.3 126.7 633.7 122.3 678.8 114.5 C 724 106.7 769 95.3 814.2 89.5 C 859.3 83.7 904.7 83.3 950 84.5 C 995.3 85.7 1040.7 88.3 1085.8 98 C 1131 107.7 1176 124.3 1221.2 129 C 1266.3 133.7 1311.7 126.3 1357 127.2 C 1402.3 128 1447.7 137 1493 140 C 1538.3 143 1583.7 140 1628.8 136.7 C 1674 133.3 1719 129.7 1764.2 131.2 C 1809.3 132.7 1854.7 139.3 1877.3 142.7 L 1900 146 L 1900 0 L 1877.3 0 C 1854.7 0 1809.3 0 1764.2 0 C 1719 0 1674 0 1628.8 0 C 1583.7 0 1538.3 0 1493 0 C 1447.7 0 1402.3 0 1357 0 C 1311.7 0 1266.3 0 1221.2 0 C 1176 0 1131 0 1085.8 0 C 1040.7 0 995.3 0 950 0 C 904.7 0 859.3 0 814.2 0 C 769 0 724 0 678.8 0 C 633.7 0 588.3 0 543 0 C 497.7 0 452.3 0 407 0 C 361.7 0 316.3 0 271.2 0 C 226 0 181 0 135.8 0 C 90.7 0 45.3 0 22.7 0 L 0 0 Z" fill="#d91c69"></path><path d="M 0 79 L 22.7 79.3 C 45.3 79.7 90.7 80.3 135.8 72 C 181 63.7 226 46.3 271.2 39.7 C 316.3 33 361.7 37 407 46.7 C 452.3 56.3 497.7 71.7 543 81 C 588.3 90.3 633.7 93.7 678.8 91.5 C 724 89.3 769 81.7 814.2 70 C 859.3 58.3 904.7 42.7 950 37.5 C 995.3 32.3 1040.7 37.7 1085.8 44.2 C 1131 50.7 1176 58.3 1221.2 64.2 C 1266.3 70 1311.7 74 1357 72.5 C 1402.3 71 1447.7 64 1493 65.8 C 1538.3 67.7 1583.7 78.3 1628.8 84.2 C 1674 90 1719 91 1764.2 79.5 C 1809.3 68 1854.7 44 1877.3 32 L 1900 20 L 1900 0 L 1877.3 0 C 1854.7 0 1809.3 0 1764.2 0 C 1719 0 1674 0 1628.8 0 C 1583.7 0 1538.3 0 1493 0 C 1447.7 0 1402.3 0 1357 0 C 1311.7 0 1266.3 0 1221.2 0 C 1176 0 1131 0 1085.8 0 C 1040.7 0 995.3 0 950 0 C 904.7 0 859.3 0 814.2 0 C 769 0 724 0 678.8 0 C 633.7 0 588.3 0 543 0 C 497.7 0 452.3 0 407 0 C 361.7 0 316.3 0 271.2 0 C 226 0 181 0 135.8 0 C 90.7 0 45.3 0 22.7 0 L 0 0 Z" fill="#c62368"></path></svg>